<svg width="345" height="300" viewBox="0 0 345 300" fill="none" xmlns="http://www.w3.org/2000/svg">
<path d="M0 233.488L5.13482 202.438L205.313 181.819L338.337 262.532L289.957 300L230.505 250.256L189.828 256.755V262.532L107.189 289.65L78.1456 242.474L0 233.488Z" fill="black" fill-opacity="0.15"/>
<path d="M52.3911 118.436H146.102V215.677H52.3911V118.436Z" fill="black"/>
<path d="M250.216 185.151L231.188 136.756C230.549 135.131 228.897 134.14 227.163 134.339L178.476 139.946C176.532 140.17 175.065 141.816 175.065 143.772V248.163C175.065 250.499 177.129 252.298 179.444 251.977L247.16 242.613C249.065 242.349 250.483 240.721 250.483 238.798V186.56C250.483 186.078 250.393 185.6 250.216 185.151Z" fill="white"/>
<path fill-rule="evenodd" clip-rule="evenodd" d="M226.562 139.9L180.521 145.203V246.321L245.027 237.4V186.864L226.562 139.9ZM231.188 136.756L250.216 185.151C250.393 185.6 250.483 186.078 250.483 186.56V238.798C250.483 240.721 249.065 242.349 247.16 242.613L179.444 251.977C177.129 252.298 175.065 250.499 175.065 248.163V143.772C175.065 141.816 176.532 140.17 178.476 139.946L227.163 134.339C228.897 134.14 230.549 135.131 231.188 136.756Z" fill="black"/>
<path d="M235.179 197.435C234.98 194.644 236.757 192.092 239.444 191.311L248.638 188.639L249.279 240.067L238.288 241.03L235.179 197.435Z" fill="#110000" fill-opacity="0.2"/>
<path d="M186.217 171.469L180.762 126.78H223.525L237.566 162.884L186.217 171.469Z" fill="#110000" fill-opacity="0.2"/>
<path d="M180.762 157.749V126.78H223.525L232.11 149.165L180.762 157.749Z" fill="black"/>
<path d="M190.472 74.1724L245.368 69.9267C247.356 69.773 249.132 71.1611 249.463 73.1267L259.767 134.309C260.13 136.463 258.631 138.487 256.465 138.768L200.418 146.036L167.494 153.32C165.303 153.805 163.163 152.321 162.849 150.099L154.92 94.0218C154.685 92.3631 155.55 90.7431 157.058 90.0147L189.094 74.5441C189.526 74.3355 189.993 74.2094 190.472 74.1724Z" fill="white"/>
<path fill-rule="evenodd" clip-rule="evenodd" d="M199.476 140.656L254.111 133.571L244.327 75.4793L191.194 79.5886L160.486 94.418L168.008 147.619L199.476 140.656ZM245.368 69.9267L190.472 74.1724C189.993 74.2094 189.526 74.3355 189.094 74.5441L157.058 90.0147C155.55 90.7431 154.685 92.3631 154.92 94.0218L162.849 150.099C163.163 152.321 165.303 153.805 167.494 153.32L200.418 146.036L256.465 138.768C258.631 138.487 260.13 136.463 259.767 134.309L249.463 73.1267C249.132 71.1611 247.356 69.773 245.368 69.9267Z" fill="black"/>
<path d="M200.9 144.912L191.112 73.7471L150.916 86.9051L160.864 153.257L200.9 144.912Z" fill="black"/>
<path d="M241.974 249.246L284.963 283.756C286.146 284.706 287.777 284.873 289.128 284.181L339.056 258.625C340.253 258.012 341.044 256.819 341.142 255.477L344.918 203.879C345.016 202.536 344.406 201.24 343.309 200.459L298.349 168.483C297.185 167.655 295.657 167.54 294.381 168.184L242.649 194.31C241.352 194.965 240.534 196.294 240.534 197.747V246.243C240.534 247.411 241.064 248.515 241.974 249.246Z" fill="white"/>
<path fill-rule="evenodd" clip-rule="evenodd" d="M298.349 168.483C297.185 167.655 295.657 167.54 294.381 168.184L242.649 194.31C241.352 194.965 240.534 196.294 240.534 197.747V246.243C240.534 247.411 241.064 248.515 241.974 249.246L284.963 283.756C286.146 284.706 287.777 284.873 289.128 284.181L339.056 258.625C340.253 258.012 341.044 256.819 341.142 255.477L344.918 203.879C345.016 202.536 344.406 201.24 343.309 200.459L298.349 168.483ZM287.568 278.851L335.767 254.179L339.411 204.382L295.976 173.49L245.99 198.735V245.474L287.568 278.851Z" fill="black"/>
<path d="M81.3188 132.918L18.4959 130.889C16.727 130.832 15.1469 131.988 14.6656 133.691L4.34775 170.206C4.2315 170.617 4.18456 171.045 4.20886 171.472L7.10649 222.366C7.21751 224.316 8.77063 225.874 10.7202 225.991L75.7437 229.901C77.7712 230.023 79.5449 228.55 79.7964 226.534L85.0456 184.466V136.767C85.0456 134.688 83.3962 132.985 81.3188 132.918Z" fill="white"/>
<path fill-rule="evenodd" clip-rule="evenodd" d="M19.5745 136.382L9.67108 171.43L12.4723 220.631L74.569 224.365L79.5899 184.127V138.32L19.5745 136.382ZM85.0456 184.466L79.7964 226.534C79.5449 228.55 77.7712 230.023 75.7437 229.901L10.7202 225.991C8.77063 225.874 7.21751 224.316 7.10649 222.366L4.20886 171.472C4.18456 171.045 4.2315 170.617 4.34775 170.206L14.6656 133.691C15.1469 131.988 16.727 130.832 18.4959 130.889L81.3188 132.918C83.3962 132.985 85.0456 134.688 85.0456 136.767V184.466Z" fill="black"/>
<path d="M4.0918 171.629L18.1323 133.359H89.1373L77.6642 174.999L4.0918 171.629Z" fill="#110000" fill-opacity="0.05"/>
<path d="M75.0968 175.16L84.4037 132.396V183.985L74.134 226.267L75.0968 175.16Z" fill="black"/>
<path d="M44.9911 133.713L99.3681 153.254C100.964 153.827 102.747 153.289 103.759 151.93L132.02 113.977C132.466 113.379 132.728 112.664 132.775 111.919L135.881 62.6681C135.993 60.8854 134.865 59.2595 133.156 58.7406L79.946 42.5876C78.5479 42.1631 77.03 42.5665 76.027 43.6289L43.4932 78.0895C42.8183 78.8043 42.4424 79.7502 42.4424 80.7332V130.089C42.4424 131.714 43.4621 133.164 44.9911 133.713Z" fill="white"/>
<path fill-rule="evenodd" clip-rule="evenodd" d="M44.9911 133.713L99.3681 153.254C100.964 153.827 102.747 153.289 103.759 151.93L132.02 113.977C132.466 113.379 132.728 112.664 132.775 111.919L135.881 62.6681C135.993 60.8854 134.865 59.2595 133.156 58.7406L79.946 42.5876C78.5479 42.1631 77.03 42.5665 76.027 43.6289L43.4932 78.0895C42.8183 78.8043 42.4424 79.7502 42.4424 80.7332V130.089C42.4424 131.714 43.4621 133.164 44.9911 133.713ZM100.094 147.717L127.36 111.101L130.356 63.5922L79.312 48.0967L47.8981 81.371V128.96L100.094 147.717Z" fill="black"/>
<path d="M101.092 98.2978V151.491C110.479 139.055 129.67 114.184 131.339 114.184C133.008 114.184 132.034 79.791 131.339 62.5947L101.092 98.2978Z" fill="black"/>
<path d="M148.461 160.723L89.0196 174.005C87.2597 174.399 86.0083 175.961 86.0083 177.764V226.168C86.0083 226.812 86.17 227.446 86.4785 228.012L108.691 268.735C109.512 270.241 111.23 271.022 112.905 270.651L174.775 256.943C176.538 256.552 177.793 254.989 177.793 253.183V200.188C177.793 199.407 177.556 198.644 177.112 198.001L152.471 162.294C151.579 161.002 149.993 160.38 148.461 160.723Z" fill="white"/>
<path fill-rule="evenodd" clip-rule="evenodd" d="M91.464 179.05V225.759L112.903 265.063L172.337 251.895V200.688L148.595 166.283L91.464 179.05ZM89.0196 174.005L148.461 160.723C149.993 160.38 151.579 161.002 152.471 162.294L177.112 198.001C177.556 198.644 177.793 199.407 177.793 200.188V253.183C177.793 254.989 176.538 256.552 174.775 256.943L112.905 270.651C111.23 271.022 109.512 270.241 108.691 268.735L86.4785 228.012C86.17 227.446 86.0083 226.812 86.0083 226.168V177.764C86.0083 175.961 87.2597 174.399 89.0196 174.005Z" fill="black"/>
<path d="M120.749 211.505L108.714 168.099L124.118 161.039L176.67 200.994L120.749 211.505Z" fill="#110000" fill-opacity="0.2"/>
<path d="M176.483 94.8703L112.619 104.15C110.706 104.428 109.295 106.081 109.322 108.014L110.068 162.364C110.075 162.814 110.16 163.26 110.32 163.681L125.561 203.734C126.215 205.452 127.992 206.469 129.805 206.161L193.111 195.415C194.895 195.112 196.228 193.609 196.313 191.801L198.771 140.11C198.799 139.522 198.692 138.935 198.458 138.395L180.57 97.1491C179.878 95.5541 178.203 94.6203 176.483 94.8703Z" fill="white"/>
<path fill-rule="evenodd" clip-rule="evenodd" d="M114.796 109.347L115.52 162.006L130.191 200.562L190.925 190.253L193.304 140.223L176.053 100.446L114.796 109.347ZM193.453 140.566C193.452 140.564 193.452 140.563 193.451 140.562L193.453 140.566ZM112.619 104.15L176.483 94.8703C178.203 94.6203 179.878 95.5541 180.57 97.1491L198.458 138.395C198.692 138.935 198.799 139.522 198.771 140.11L196.313 191.801C196.228 193.609 194.895 195.112 193.111 195.415L129.805 206.161C127.992 206.469 126.215 205.452 125.561 203.734L110.32 163.681C110.16 163.26 110.075 162.814 110.068 162.364L109.322 108.014C109.295 106.081 110.706 104.428 112.619 104.15Z" fill="black"/>
<path d="M120.989 108.086L110.96 98.9397L184.613 94.8479L190.55 118.516L120.989 108.086Z" fill="#110000" fill-opacity="0.2"/>
<path d="M125.161 150.529L106.387 99.5013L182.527 92.2002L197.209 139.457L125.161 150.529Z" fill="#110000" fill-opacity="0.05"/>
<path d="M113 216L88.0142 176.684V226.909L113 267.83V216Z" fill="black"/>
<path d="M118.974 101.615L90.9408 48.3163C90.0453 46.6135 90.5438 44.511 92.1085 43.3915L128.96 17.0271C129.261 16.8117 129.591 16.6408 129.941 16.5197L177.077 0.212221C178.873 -0.409445 180.855 0.373305 181.742 2.0551L211.171 57.8529C212.014 59.4511 211.632 61.4204 210.253 62.5882L177.039 90.7211C176.637 91.0617 176.169 91.3161 175.665 91.4687L150.434 99.1001L123.009 103.622C121.372 103.892 119.746 103.084 118.974 101.615Z" fill="white"/>
<path fill-rule="evenodd" clip-rule="evenodd" d="M173.513 86.558L173.514 86.5565C173.514 86.557 173.513 86.5575 173.513 86.558L177.039 90.7211C176.637 91.0617 176.169 91.3161 175.665 91.4687L150.434 99.1001L123.009 103.622C121.372 103.892 119.746 103.084 118.974 101.615L90.9408 48.3163C90.0453 46.6135 90.5438 44.511 92.1085 43.3915L128.96 17.0271C129.261 16.8117 129.591 16.6408 129.941 16.5197L177.077 0.212221C178.873 -0.409445 180.855 0.373305 181.742 2.0551L211.171 57.8529C212.014 59.4511 211.632 61.4204 210.253 62.5882L177.039 90.7211L173.513 86.558ZM149.195 93.7749L173.767 86.3429L205.744 59.2581L177.559 5.8184L131.945 21.5996L96.4206 47.0147L123.263 98.051L149.195 93.7749ZM122.121 98.2393C122.122 98.2392 122.123 98.2391 122.123 98.239L122.121 98.2393ZM123.801 99.0733C123.802 99.0741 123.802 99.0749 123.802 99.0756L123.801 99.0733ZM178.86 5.36811C178.86 5.36835 178.859 5.36859 178.858 5.36883L178.86 5.36811Z" fill="black"/>
<path fill-rule="evenodd" clip-rule="evenodd" d="M91.3838 45.3722L122.259 103.994L152.426 99.1L174.825 89.0711L143.695 29.459L91.3838 45.3722Z" fill="black"/>
<path d="M128.05 150.208L111.522 105.92L110.318 162.644L128.05 204.685V150.208Z" fill="black"/>
<path d="M289.155 227.15L242.781 196.26V248.09L286.427 283.954L289.155 227.15Z" fill="black"/>
<path d="M37.1472 176.042H45.8122L46.6145 201.074H38.3507L37.1472 176.042Z" fill="black"/>
<path d="M135.401 220.349C135.086 218.151 136.259 216.008 138.281 215.089L141.564 213.597C142.181 213.316 142.893 213.718 142.971 214.391L145.54 236.457L138 238.5L135.401 220.349Z" fill="black"/>
<path d="M301.911 229.213L311.058 222.657V242.715L304.559 246.566L301.911 229.213Z" fill="black"/>
<path d="M195.203 209.338L203.868 212.628L205.393 219.768H196.728L195.203 209.338Z" fill="black"/>
<path d="M143.695 166.049C143.695 163.271 145.531 160.829 148.199 160.057C152.188 158.902 156.171 161.895 156.171 166.049V166.415H143.695V166.049Z" fill="black"/>
<path d="M73.4119 105.037L81.6757 101.587V122.608H75.4979L73.4119 105.037Z" fill="black"/>
<path d="M214.459 93.4036L222.723 89.9536V106.241L216.545 107.925L214.459 93.4036Z" fill="black"/>
<path d="M161.506 34.1929L168.165 29.0581L177.713 50.6404L173.14 54.652L161.506 34.1929Z" fill="black"/>
<path d="M170.653 26.3774L176.269 22.158L183.329 45.9539L179.799 49.05L170.653 26.3774Z" fill="black"/>
<path d="M54.9587 175.08H63.6238L62.0994 196.903L54.9587 199.47V175.08Z" fill="black"/>
<path d="M146.985 214.632C146.948 213.893 147.699 213.371 148.379 213.663L151.946 215.198C153.414 215.829 154.366 217.274 154.366 218.872V235.333H148.027L146.985 214.632Z" fill="black"/>
<path d="M316.353 221.342L325.179 220.009L323.815 237.419L316.353 240.147V221.342Z" fill="black"/>
<path d="M208.442 212.548L219.915 206.691L214.78 219.929H208.442V212.548Z" fill="black"/>
<path d="M163.111 165.421C163.111 161.037 167.431 157.96 171.574 159.393C174.144 160.282 175.868 162.702 175.868 165.421V166.976L163.111 165.692V165.421Z" fill="black"/>
<path d="M84.0828 105.92L91.2234 109.771L90.0199 122.608H84.0828V105.92Z" fill="black"/>
<path d="M227.457 89.2317L234.597 93.0828L233.394 105.92H227.457V89.2317Z" fill="black"/>
<path d="M30.7288 211.825L51.268 209.258V216.8H30.7288V211.825Z" fill="black"/>
<path d="M135.832 251.059L156.371 248.491V260.125L135.832 262.612V251.059Z" fill="black"/>
<path d="M304.318 252.663L322.29 243.758V248.293C322.29 252.638 319.819 256.605 315.919 258.52C313.147 259.881 304.318 260.608 304.318 257.52V252.663Z" fill="black"/>
<path d="M202.585 235.414L221.118 236.457L222.161 245.041L201.622 247.529L202.585 235.414Z" fill="black"/>
<path d="M144.337 185.429L171.134 186.633C171.134 193.213 166.099 198.698 159.543 199.261L159.016 199.306C152.131 199.897 145.948 195.098 144.812 188.282L144.337 185.429Z" fill="black"/>
<path d="M76.4607 135.766L89.7791 137.05V144.993L76.4607 140.74V135.766Z" fill="black"/>
<path d="M218.31 122.448L234.677 121.485L229.886 130.109C228.47 132.659 225.462 133.87 222.674 133.014Lnan nanL222.674 133.014C220.08 132.218 218.31 129.822 218.31 127.109V122.448Z" fill="black"/>
<path d="M174.263 62.1936L187.341 53.7693L189.524 58.1011C191.159 61.3441 190.345 65.2858 187.559 67.6159Lnan nanL187.559 67.6159C183.56 70.9612 177.469 69.5281 175.381 64.7506L174.263 62.1936Z" fill="black"/>
<path d="M27.5996 134.161C31.3705 133.867 43.7101 132.669 45.8924 132.477L84.4036 146.918L81.9164 158.07L27.5996 134.161Z" fill="#110000" fill-opacity="0.2"/>
<path d="M99.7669 42.4091C105.093 40.5091 131.485 18.4923 133.586 18.3069L181.644 2.98267L139.122 32.7486L99.7669 42.4091C99.5611 42.4825 99.3868 42.5259 99.2466 42.5368L99.7669 42.4091Z" fill="#110000" fill-opacity="0.05"/>
<path d="M69.0793 63.0761L83.4408 46.1472L95.3953 49.1158L120.428 88.2688L103.258 109.45L92.4267 103.513V96.0513L69.0793 63.0761Z" fill="#110000" fill-opacity="0.2"/>
</svg>
